<?xml version="1.0" encoding="UTF-8"?>
<svg id="uuid-86685153-8fae-40ef-a1fc-94077c8ae3ec" data-name="Layer 1" xmlns="http://www.w3.org/2000/svg" viewBox="0 0 270 135">
  <defs>
    <style>
      .uuid-8b2d71a4-4d8b-425f-b67e-ebd6ecc78965, .uuid-4838d810-7744-4666-99b3-8516508b10f3 {
        fill: #fff;
      }

      .uuid-4838d810-7744-4666-99b3-8516508b10f3, .uuid-b98f2a01-0acd-400a-a51a-372f4c910297 {
        fill-rule: evenodd;
      }

      .uuid-b98f2a01-0acd-400a-a51a-372f4c910297, .uuid-17badc6f-1682-4220-9554-e0e5d70d4844 {
        fill: #ec2027;
      }
    </style>
  </defs>
  <rect class="uuid-8b2d71a4-4d8b-425f-b67e-ebd6ecc78965" x="31.7" y="59.4" width="14.3" height="14.3" transform="translate(-35.7 46.9) rotate(-45)"/>
  <path class="uuid-4838d810-7744-4666-99b3-8516508b10f3" d="M33.7,51.3l3.6,3.6-11.6,11.6,11.6,11.6s-10.1,10.1-10.1,10.1c-5.3-5.3-11.6-11.6-11.6-11.6l-7-7c-1.7-1.7-1.7-4.5,0-6.2l7-7,11.6-11.6,6.5,6.5Z"/>
  <path class="uuid-b98f2a01-0acd-400a-a51a-372f4c910297" d="M41.9,36.4l20.1,20.1,7,7c1.7,1.7,1.7,4.5,0,6.2l-7,7-20.1,20.1c-1.7,1.7-4.5,1.7-6.2,0l-7-7,23.2-23.2-23.2-23.2,7-7c1.7-1.7,4.5-1.7,6.2,0"/>
  <path class="uuid-17badc6f-1682-4220-9554-e0e5d70d4844" d="M156.2,68.6c.7,3.1,2.9,4.5,6.5,4.5s5.3-1.6,5.3-3.9-1.4-3.7-6.6-5c-7.5-1.8-9.5-4.4-9.5-8.4s3.5-8.2,10.2-8.2,10.3,4.1,10.7,8.1h-5.4c-.4-2-1.6-4-5.4-4s-4.5,1.2-4.5,3.5,1.4,3.1,6.1,4.3c8.3,2,10,5.1,10,9s-3.8,8.6-11.2,8.6-10.9-3.7-11.5-8.7"/>
  <path class="uuid-8b2d71a4-4d8b-425f-b67e-ebd6ecc78965" d="M95.7,48.6h-14.1c1.5,0,2.5,1.1,2.5,2.1v26.6h5.4v-8.9c0-1.1-1-2.1-2.5-2.1h2.5s6,0,6,0c5.7,0,10.1-2.9,10.1-8.9s-4-8.7-10-8.7M95,61.9h-5.4v-6.8c0-1.1-1-2.1-2.5-2.1h2.5s5.5,0,5.5,0c2.9,0,5.1,1.3,5.1,4.5s-2,4.5-5.2,4.5"/>
  <path class="uuid-8b2d71a4-4d8b-425f-b67e-ebd6ecc78965" d="M116,59.9v-4h-6.8c.9,0,1.6.6,1.6,1.3,0,1.3,0,2.7,0,4.5v15.6h5.2v-9.7c0-5.7,2.6-7.8,7-7.7v-4c-3.6,0-6,1.4-7,3.9"/>
  <path class="uuid-17badc6f-1682-4220-9554-e0e5d70d4844" d="M207.1,59.9v-4h-6.8c.9,0,1.6.6,1.6,1.3,0,1.3,0,2.7,0,4.5v15.6h5.2v-9.7c0-5.7,2.6-7.8,7-7.7v-4c-3.6,0-6,1.4-7,3.9"/>
  <path class="uuid-17badc6f-1682-4220-9554-e0e5d70d4844" d="M182.2,67.2c0,3.2,1.6,6,4.8,6s3.6-1.2,4.2-2.6h5.2c-.8,2.7-3.1,6.7-9.5,6.7s-9.9-5.3-9.9-10.9,3.4-11.5,10.1-11.5,9.6,5.4,9.6,10.4,0,1.2,0,1.8M191.5,63.9c0-2.8-1.3-5.2-4.4-5.2s-4.5,2.2-4.7,5.2h9.2Z"/>
  <path class="uuid-17badc6f-1682-4220-9554-e0e5d70d4844" d="M248.2,67.2c0,3.2,1.6,6,4.8,6s3.6-1.2,4.2-2.6h5.2c-.8,2.7-3.1,6.7-9.5,6.7s-9.9-5.3-9.9-10.9,3.4-11.5,10.1-11.5,9.6,5.4,9.6,10.4,0,1.2,0,1.8M257.5,63.9c0-2.8-1.3-5.2-4.4-5.2s-4.5,2.2-4.7,5.2h9.2Z"/>
  <path class="uuid-8b2d71a4-4d8b-425f-b67e-ebd6ecc78965" d="M147.2,66.1c0,6.4-3.7,11.2-10.4,11.2s-10.3-4.7-10.3-11.1,3.9-11.2,10.5-11.2,10.2,4.4,10.2,11.1M131.8,66.1c0,4.3,2,7.1,5.1,7.1s5-2.7,5-7-1.8-7.1-5.1-7.1-5.1,2.4-5.1,7.1"/>
  <path class="uuid-17badc6f-1682-4220-9554-e0e5d70d4844" d="M234.3,56c-2.3,7.2-4.5,13.6-5,16.7h0c-.5-2.6-2.3-9-4.6-16.7h-6.9c1,0,1.8,1.1,1.9,1.4l6.8,19.9h5.5l7.7-21.4"/>
  <polyline class="uuid-8b2d71a4-4d8b-425f-b67e-ebd6ecc78965" points="81.6 85.5 89.3 85.5 89.3 87.7 84.5 87.7 84.5 89.7 89 89.7 89 92 84.5 92 84.5 96.4 81.6 96.4"/>
  <path class="uuid-8b2d71a4-4d8b-425f-b67e-ebd6ecc78965" d="M92,96c-.6-.3-1.1-.8-1.5-1.4-.3-.6-.5-1.3-.5-2.2s.2-1.6.5-2.2c.4-.6.8-1.1,1.5-1.4.6-.3,1.4-.5,2.3-.5s1.6.2,2.3.5c.6.3,1.1.8,1.5,1.4.3.6.5,1.3.5,2.2s-.2,1.6-.5,2.2c-.4.6-.8,1.1-1.5,1.4-.6.3-1.4.5-2.3.5s-1.6-.2-2.3-.5M95.8,92.5c0-.7-.1-1.2-.4-1.5-.3-.3-.6-.5-1.1-.5s-.9.2-1.2.5c-.3.3-.4.8-.4,1.5s.1,1.2.4,1.5c.3.3.6.5,1.2.5,1,0,1.5-.7,1.5-2"/>
  <path class="uuid-8b2d71a4-4d8b-425f-b67e-ebd6ecc78965" d="M105.7,88.6v2.5c-.4-.2-.9-.3-1.3-.3-1.2,0-1.8.6-1.8,1.7v3.9h-2.8v-5.6c0-.8,0-1.6-.1-2.2h2.6l.2,1.3c.2-.5.5-.9.9-1.1.4-.3.9-.4,1.4-.4s.7,0,.9.2"/>
  <path class="uuid-8b2d71a4-4d8b-425f-b67e-ebd6ecc78965" d="M118.4,89.2c.4.6.7,1.4.7,2.5v4.7h-2.8v-4.6c0-.5,0-.8-.2-1-.1-.2-.4-.3-.7-.3s-.7.1-.9.4c-.2.3-.3.7-.3,1.2v4.3h-2.8v-4.6c0-.5,0-.8-.2-1-.1-.2-.4-.3-.7-.3s-.7.1-.9.4c-.2.3-.3.7-.3,1.2v4.3h-2.8v-5.6c0-.8,0-1.6-.1-2.2h2.6v1.1c.4-.4.7-.7,1.1-1,.4-.2.9-.3,1.5-.3,1.1,0,1.9.5,2.3,1.4.3-.4.6-.8,1.1-1,.5-.3,1-.4,1.5-.4.9,0,1.6.3,2,.8"/>
  <path class="uuid-8b2d71a4-4d8b-425f-b67e-ebd6ecc78965" d="M127.9,92.8h-4.9c0,.6.2,1,.5,1.3.3.3.7.4,1.3.4s.8,0,1.2-.2c.4-.1.7-.3,1.1-.5l.7,1.8c-.4.3-.9.5-1.4.7-.6.2-1.1.2-1.7.2-.9,0-1.7-.2-2.3-.5-.7-.3-1.2-.8-1.5-1.4-.3-.6-.5-1.3-.5-2.2s.2-1.5.5-2.1c.3-.6.8-1.1,1.4-1.5.6-.3,1.3-.5,2-.5s1.4.2,1.9.5c.6.3,1,.8,1.3,1.4.3.6.4,1.3.4,2.1M123,91.5h2.5c-.1-.8-.5-1.2-1.2-1.2s-1.1.4-1.3,1.2"/>
  <path class="uuid-8b2d71a4-4d8b-425f-b67e-ebd6ecc78965" d="M135,88.6v2.5c-.4-.2-.9-.3-1.3-.3-1.2,0-1.8.6-1.8,1.7v3.9h-2.8v-5.6c0-.8,0-1.6-.1-2.2h2.6l.2,1.3c.2-.5.5-.9.9-1.1.4-.3.9-.4,1.4-.4s.7,0,.9.2"/>
  <rect class="uuid-8b2d71a4-4d8b-425f-b67e-ebd6ecc78965" x="135.8" y="85.1" width="2.8" height="11.3"/>
  <path class="uuid-8b2d71a4-4d8b-425f-b67e-ebd6ecc78965" d="M148.3,88.6l-3.6,8.1c-.5,1.1-1.1,1.8-1.8,2.3-.7.5-1.6.8-2.6.9l-.6-2.1c.7-.1,1.3-.3,1.6-.6.4-.2.6-.5.8-.9l.2-.4-3.2-7.3h2.9l1.8,4.5,1.8-4.5"/>
  <polyline class="uuid-8b2d71a4-4d8b-425f-b67e-ebd6ecc78965" points="158.8 96.4 156.1 93.1 156.1 96.4 153.3 96.4 153.3 85.1 156.1 85.1 156.1 91.9 158.7 88.6 162 88.6 158.9 92.4 162.1 96.4"/>
  <path class="uuid-8b2d71a4-4d8b-425f-b67e-ebd6ecc78965" d="M169.8,89.2c.5.6.7,1.4.7,2.5v4.7h-2.8v-4.5c0-.5,0-.8-.2-1-.2-.2-.4-.3-.8-.3s-.8.1-1,.4c-.3.3-.4.7-.4,1.1v4.4h-2.8v-5.6c0-.8,0-1.6-.1-2.2h2.6v1.2c.4-.4.8-.8,1.2-1,.4-.2.9-.4,1.5-.4.9,0,1.6.3,2.1.8"/>
  <path class="uuid-8b2d71a4-4d8b-425f-b67e-ebd6ecc78965" d="M173.8,96c-.6-.3-1.1-.8-1.5-1.4-.3-.6-.5-1.3-.5-2.2s.2-1.6.5-2.2c.4-.6.8-1.1,1.5-1.4.7-.3,1.4-.5,2.3-.5s1.6.2,2.3.5c.6.3,1.1.8,1.5,1.4.3.6.5,1.3.5,2.2s-.2,1.6-.5,2.2c-.4.6-.8,1.1-1.5,1.4-.6.3-1.4.5-2.3.5s-1.6-.2-2.3-.5M177.6,92.5c0-.7-.1-1.2-.4-1.5-.3-.3-.6-.5-1.1-.5s-.9.2-1.2.5c-.3.3-.4.8-.4,1.5s.1,1.2.4,1.5c.3.3.6.5,1.2.5,1,0,1.5-.7,1.5-2"/>
  <polyline class="uuid-8b2d71a4-4d8b-425f-b67e-ebd6ecc78965" points="194.6 88.6 191.4 96.4 189.1 96.4 187.5 92.5 186 96.4 183.7 96.4 180.5 88.6 183.3 88.6 185 93.1 186.7 88.6 188.5 88.6 190.3 93.2 192 88.6"/>
  <path class="uuid-8b2d71a4-4d8b-425f-b67e-ebd6ecc78965" d="M202.6,89.2c.5.6.7,1.4.7,2.5v4.7h-2.8v-4.5c0-.5,0-.8-.2-1-.2-.2-.4-.3-.8-.3s-.8.1-1,.4c-.3.3-.4.7-.4,1.1v4.4h-2.8v-5.6c0-.8,0-1.6-.1-2.2h2.6v1.2c.4-.4.8-.8,1.2-1,.4-.2.9-.4,1.5-.4.9,0,1.6.3,2.1.8"/>
  <path class="uuid-8b2d71a4-4d8b-425f-b67e-ebd6ecc78965" d="M217.6,88.6v7.8h-2.7v-1.1c-.2.4-.6.7-1,.9-.4.2-.9.3-1.4.3s-1.3-.2-1.8-.5c-.5-.3-.9-.8-1.2-1.4-.3-.6-.4-1.3-.4-2.1s.1-1.5.4-2.2c.3-.6.7-1.1,1.2-1.5.5-.3,1.1-.5,1.8-.5s1,.1,1.4.3c.4.2.8.5,1,.9v-1M214.5,94c.3-.3.4-.8.4-1.5s-.1-1.1-.4-1.5c-.3-.3-.6-.5-1.1-.5s-.9.2-1.1.5c-.3.4-.4.9-.4,1.5s.1,1.1.4,1.4c.3.3.7.5,1.2.5s.9-.2,1.1-.5"/>
  <path class="uuid-8b2d71a4-4d8b-425f-b67e-ebd6ecc78965" d="M218.7,95.6l.7-1.9c.4.3.9.5,1.4.7.5.2,1.1.2,1.6.2s.6,0,.7-.1c.2,0,.3-.2.3-.4s0-.3-.2-.3c-.1,0-.4-.2-.7-.2l-1.3-.3c-.8-.2-1.4-.4-1.7-.8-.4-.4-.5-.8-.5-1.5s.1-1,.4-1.3c.3-.4.7-.7,1.2-.9.5-.2,1.1-.3,1.8-.3s1.1,0,1.7.2c.5.2,1.1.4,1.5.7l-.7,1.8c-.4-.3-.8-.5-1.3-.6-.4-.1-.8-.2-1.2-.2s-.5,0-.7.1c-.2,0-.3.2-.3.4s0,.2.2.3c.1,0,.3.1.6.2l1.3.3c.8.2,1.4.5,1.8.9.4.4.5.9.5,1.5s-.3,1.4-.9,1.8c-.6.4-1.5.7-2.5.7-1.6,0-2.8-.3-3.7-.9"/>
  <polyline class="uuid-17badc6f-1682-4220-9554-e0e5d70d4844" points="234.2 87.8 230.9 87.8 230.9 85.5 240.4 85.5 240.4 87.8 237.1 87.8 237.1 96.4 234.2 96.4"/>
  <path class="uuid-17badc6f-1682-4220-9554-e0e5d70d4844" d="M242.8,96.2c-.8-.2-1.5-.5-2-.9l.9-2c.5.3,1.1.6,1.7.8.6.2,1.2.3,1.8.3s1.1,0,1.4-.3c.3-.2.5-.4.5-.7s-.1-.5-.4-.7c-.3-.2-.9-.4-1.7-.5-1-.2-1.8-.5-2.4-.8-.6-.3-1-.7-1.2-1.1-.2-.4-.3-.9-.3-1.5s.2-1.3.6-1.8c.4-.5.9-1,1.6-1.3.7-.3,1.5-.5,2.4-.5s1.6.1,2.3.3c.7.2,1.3.5,1.7.9l-.9,2.1c-.5-.3-1-.6-1.5-.8-.5-.2-1.1-.3-1.6-.3s-.9,0-1.3.3c-.3.2-.5.5-.5.8s0,.3.2.5c.1.1.3.2.6.4.3.1.8.2,1.4.4,1,.2,1.8.5,2.3.8.6.3,1,.7,1.2,1.1.2.4.4.9.4,1.5,0,1.1-.4,1.9-1.2,2.5-.8.6-2,.9-3.5.9s-1.6-.1-2.4-.3"/>
  <polyline class="uuid-17badc6f-1682-4220-9554-e0e5d70d4844" points="262.7 85.5 262.7 96.4 260.1 96.4 260.1 91.4 258 96.4 256.2 96.4 254.1 91.5 254.1 96.4 251.6 96.4 251.6 85.5 253.9 85.5 257.2 92.9 260.4 85.5"/>
</svg>