<?xml version="1.0" encoding="UTF-8"?>
<svg id="uuid-d0efa203-dee1-4986-8398-1d5a1fe96132" data-name="Layer 1" xmlns="http://www.w3.org/2000/svg" viewBox="0 0 270 135">
  <defs>
    <style>
      .uuid-ab276ecb-b4f0-47bb-915a-be5c840c7c60, .uuid-6a673f22-5fb4-40e9-aebe-8fcb122285a9 {
        fill: #fff;
      }

      .uuid-6a673f22-5fb4-40e9-aebe-8fcb122285a9 {
        fill-rule: evenodd;
      }
    </style>
  </defs>
  <rect class="uuid-ab276ecb-b4f0-47bb-915a-be5c840c7c60" x="31.7" y="60.4" width="14.3" height="14.3" transform="translate(-36.4 47.2) rotate(-45)"/>
  <path class="uuid-6a673f22-5fb4-40e9-aebe-8fcb122285a9" d="M33.7,52.3l3.6,3.6-11.6,11.6,11.6,11.6s-10.1,10.1-10.1,10.1c-5.3-5.3-11.6-11.6-11.6-11.6l-7-7c-1.7-1.7-1.7-4.5,0-6.2l7-7,11.6-11.6s3.6,3.6,6.5,6.5Z"/>
  <path class="uuid-6a673f22-5fb4-40e9-aebe-8fcb122285a9" d="M41.9,37.3l20.1,20.1,7,7c1.7,1.7,1.7,4.5,0,6.2l-7,7-20.1,20.1c-1.7,1.7-4.5,1.7-6.2,0l-7-7,23.2-23.2-23.2-23.2,7-7c1.7-1.7,4.5-1.7,6.2,0"/>
  <path class="uuid-ab276ecb-b4f0-47bb-915a-be5c840c7c60" d="M156.2,69.6c.7,3.1,2.9,4.5,6.5,4.5s5.3-1.6,5.3-3.9-1.4-3.7-6.6-5c-7.5-1.8-9.5-4.4-9.5-8.4s3.5-8.2,10.2-8.2,10.3,4.1,10.7,8.1h-5.4c-.4-2-1.6-4-5.4-4s-4.5,1.2-4.5,3.5,1.4,3.1,6.1,4.3c8.3,2,10,5.1,10,9s-3.8,8.6-11.2,8.6-10.9-3.7-11.5-8.7"/>
  <path class="uuid-ab276ecb-b4f0-47bb-915a-be5c840c7c60" d="M95.7,49.5h-14.1c1.5,0,2.5,1.1,2.5,2.1v26.6h5.4v-8.9c0-1.1-1-2.1-2.5-2.1h2.5s6,0,6,0c5.7,0,10.1-2.9,10.1-8.9s-4-8.7-10-8.7M95,62.8h-5.4v-6.8c0-1.1-1-2.1-2.5-2.1h2.5s5.5,0,5.5,0c2.9,0,5.1,1.3,5.1,4.5s-2,4.5-5.2,4.5"/>
  <path class="uuid-ab276ecb-b4f0-47bb-915a-be5c840c7c60" d="M116,60.9v-4h-6.8c.9,0,1.6.6,1.6,1.3,0,1.3,0,2.7,0,4.5v15.6h5.2v-9.7c0-5.7,2.6-7.8,7-7.7v-4c-3.6,0-6,1.4-7,3.9"/>
  <path class="uuid-ab276ecb-b4f0-47bb-915a-be5c840c7c60" d="M207.1,60.9v-4h-6.8c.9,0,1.6.6,1.6,1.3,0,1.3,0,2.7,0,4.5v15.6h5.2v-9.7c0-5.7,2.6-7.8,7-7.7v-4c-3.6,0-6,1.4-7,3.9"/>
  <path class="uuid-ab276ecb-b4f0-47bb-915a-be5c840c7c60" d="M182.2,68.2c0,3.2,1.6,6,4.8,6s3.6-1.2,4.2-2.6h5.2c-.8,2.7-3.1,6.7-9.5,6.7s-9.9-5.3-9.9-10.9,3.4-11.5,10.1-11.5,9.6,5.4,9.6,10.4,0,1.2,0,1.8M191.5,64.9c0-2.8-1.3-5.2-4.4-5.2s-4.5,2.2-4.7,5.2h9.2Z"/>
  <path class="uuid-ab276ecb-b4f0-47bb-915a-be5c840c7c60" d="M248.2,68.2c0,3.2,1.6,6,4.8,6s3.6-1.2,4.2-2.6h5.2c-.8,2.7-3.1,6.7-9.5,6.7s-9.9-5.3-9.9-10.9,3.4-11.5,10.1-11.5,9.6,5.4,9.6,10.4,0,1.2,0,1.8M257.5,64.9c0-2.8-1.3-5.2-4.4-5.2s-4.5,2.2-4.7,5.2h9.2Z"/>
  <path class="uuid-ab276ecb-b4f0-47bb-915a-be5c840c7c60" d="M147.2,67.1c0,6.4-3.7,11.2-10.4,11.2s-10.3-4.7-10.3-11.1,3.9-11.2,10.5-11.2,10.2,4.4,10.2,11.1M131.8,67.1c0,4.3,2,7.1,5.1,7.1s5-2.7,5-7-1.8-7.1-5.1-7.1-5.1,2.4-5.1,7.1"/>
  <path class="uuid-ab276ecb-b4f0-47bb-915a-be5c840c7c60" d="M234.3,56.9c-2.3,7.2-4.5,13.6-5,16.7h0c-.5-2.6-2.3-9-4.6-16.7h-6.9c1,0,1.8,1.1,1.9,1.4l6.8,19.9h5.5l7.7-21.4"/>
</svg>